<mxfile host="65bd71144e">
    <diagram id="Rpzoug0Q8rYWwcBXJNfz" name="Page-1">
        <mxGraphModel dx="1400" dy="411" grid="1" gridSize="10" guides="1" tooltips="1" connect="1" arrows="1" fold="1" page="1" pageScale="1" pageWidth="827" pageHeight="1169" math="0" shadow="0">
            <root>
                <mxCell id="0"/>
                <mxCell id="1" parent="0"/>
                <mxCell id="bZagwtYcMBlJlPfbizuW-3" value="" style="edgeStyle=none;html=1;" edge="1" parent="1" source="bZagwtYcMBlJlPfbizuW-1" target="bZagwtYcMBlJlPfbizuW-2">
                    <mxGeometry relative="1" as="geometry"/>
                </mxCell>
                <mxCell id="bZagwtYcMBlJlPfbizuW-1" value="inico" style="rounded=1;whiteSpace=wrap;html=1;fillColor=#6a00ff;fontColor=#ffffff;strokeColor=#3700CC;" vertex="1" parent="1">
                    <mxGeometry x="220" y="40" width="100" height="40" as="geometry"/>
                </mxCell>
                <mxCell id="bZagwtYcMBlJlPfbizuW-9" value="" style="edgeStyle=none;html=1;" edge="1" parent="1" source="bZagwtYcMBlJlPfbizuW-2" target="bZagwtYcMBlJlPfbizuW-8">
                    <mxGeometry relative="1" as="geometry"/>
                </mxCell>
                <mxCell id="bZagwtYcMBlJlPfbizuW-2" value="a,b,c" style="shape=parallelogram;perimeter=parallelogramPerimeter;whiteSpace=wrap;html=1;fixedSize=1;rounded=1;fillColor=#6a00ff;fontColor=#ffffff;strokeColor=#3700CC;" vertex="1" parent="1">
                    <mxGeometry x="210" y="110" width="130" height="30" as="geometry"/>
                </mxCell>
                <mxCell id="bZagwtYcMBlJlPfbizuW-11" value="" style="edgeStyle=none;html=1;" edge="1" parent="1" source="bZagwtYcMBlJlPfbizuW-8" target="bZagwtYcMBlJlPfbizuW-10">
                    <mxGeometry relative="1" as="geometry">
                        <Array as="points">
                            <mxPoint x="490" y="220"/>
                        </Array>
                    </mxGeometry>
                </mxCell>
                <mxCell id="bZagwtYcMBlJlPfbizuW-13" value="" style="edgeStyle=none;html=1;" edge="1" parent="1" source="bZagwtYcMBlJlPfbizuW-8" target="bZagwtYcMBlJlPfbizuW-12">
                    <mxGeometry relative="1" as="geometry">
                        <Array as="points">
                            <mxPoint x="160" y="220"/>
                        </Array>
                    </mxGeometry>
                </mxCell>
                <mxCell id="bZagwtYcMBlJlPfbizuW-8" value="a==0" style="rhombus;whiteSpace=wrap;html=1;rounded=1;fillColor=#6a00ff;fontColor=#ffffff;strokeColor=#3700CC;" vertex="1" parent="1">
                    <mxGeometry x="220" y="180" width="110" height="80" as="geometry"/>
                </mxCell>
                <mxCell id="bZagwtYcMBlJlPfbizuW-30" value="" style="edgeStyle=none;html=1;exitX=0.583;exitY=0.788;exitDx=0;exitDy=0;exitPerimeter=0;" edge="1" parent="1" source="bZagwtYcMBlJlPfbizuW-10">
                    <mxGeometry relative="1" as="geometry">
                        <mxPoint y="692" as="targetPoint"/>
                        <Array as="points">
                            <mxPoint x="500" y="710"/>
                            <mxPoint x="500" y="760"/>
                            <mxPoint x="410" y="760"/>
                            <mxPoint x="270" y="760"/>
                            <mxPoint y="760"/>
                        </Array>
                    </mxGeometry>
                </mxCell>
                <mxCell id="bZagwtYcMBlJlPfbizuW-10" value="no hay ecuacion&amp;nbsp;&lt;br&gt;cuadrativa" style="shape=document;whiteSpace=wrap;html=1;boundedLbl=1;rounded=1;fillColor=#60a917;fontColor=#ffffff;strokeColor=#2D7600;" vertex="1" parent="1">
                    <mxGeometry x="430" y="280" width="120" height="80" as="geometry"/>
                </mxCell>
                <mxCell id="bZagwtYcMBlJlPfbizuW-15" value="" style="edgeStyle=none;html=1;" edge="1" parent="1" source="bZagwtYcMBlJlPfbizuW-12" target="bZagwtYcMBlJlPfbizuW-14">
                    <mxGeometry relative="1" as="geometry"/>
                </mxCell>
                <mxCell id="bZagwtYcMBlJlPfbizuW-12" value="d=B/2-4ac" style="whiteSpace=wrap;html=1;rounded=1;fillColor=#60a917;fontColor=#ffffff;strokeColor=#2D7600;" vertex="1" parent="1">
                    <mxGeometry x="100" y="260" width="120" height="60" as="geometry"/>
                </mxCell>
                <mxCell id="bZagwtYcMBlJlPfbizuW-17" value="" style="edgeStyle=none;html=1;" edge="1" parent="1" source="bZagwtYcMBlJlPfbizuW-14" target="bZagwtYcMBlJlPfbizuW-16">
                    <mxGeometry relative="1" as="geometry">
                        <Array as="points">
                            <mxPoint x="290" y="400"/>
                        </Array>
                    </mxGeometry>
                </mxCell>
                <mxCell id="bZagwtYcMBlJlPfbizuW-23" value="" style="edgeStyle=none;html=1;entryX=0.5;entryY=0;entryDx=0;entryDy=0;" edge="1" parent="1" source="bZagwtYcMBlJlPfbizuW-14" target="bZagwtYcMBlJlPfbizuW-18">
                    <mxGeometry relative="1" as="geometry">
                        <mxPoint x="74.71910112359546" y="469.7752808988764" as="targetPoint"/>
                        <Array as="points">
                            <mxPoint x="60" y="400"/>
                        </Array>
                    </mxGeometry>
                </mxCell>
                <mxCell id="bZagwtYcMBlJlPfbizuW-14" value="d==0" style="rhombus;whiteSpace=wrap;html=1;rounded=1;fillColor=#d80073;fontColor=#ffffff;strokeColor=#A50040;" vertex="1" parent="1">
                    <mxGeometry x="110" y="360" width="100" height="80" as="geometry"/>
                </mxCell>
                <mxCell id="bZagwtYcMBlJlPfbizuW-32" value="" style="edgeStyle=none;html=1;" edge="1" parent="1" source="bZagwtYcMBlJlPfbizuW-16" target="bZagwtYcMBlJlPfbizuW-34">
                    <mxGeometry relative="1" as="geometry">
                        <mxPoint x="290" y="830" as="targetPoint"/>
                    </mxGeometry>
                </mxCell>
                <mxCell id="bZagwtYcMBlJlPfbizuW-16" value="x1==b/2a&lt;br&gt;x2=x" style="whiteSpace=wrap;html=1;rounded=1;fillColor=#d80073;fontColor=#ffffff;strokeColor=#A50040;" vertex="1" parent="1">
                    <mxGeometry x="230" y="470" width="120" height="60" as="geometry"/>
                </mxCell>
                <mxCell id="bZagwtYcMBlJlPfbizuW-21" value="" style="edgeStyle=none;html=1;" edge="1" parent="1" source="bZagwtYcMBlJlPfbizuW-18" target="bZagwtYcMBlJlPfbizuW-20">
                    <mxGeometry relative="1" as="geometry">
                        <Array as="points">
                            <mxPoint x="-60" y="480"/>
                        </Array>
                    </mxGeometry>
                </mxCell>
                <mxCell id="bZagwtYcMBlJlPfbizuW-26" value="" style="edgeStyle=none;html=1;" edge="1" parent="1" source="bZagwtYcMBlJlPfbizuW-18" target="bZagwtYcMBlJlPfbizuW-25">
                    <mxGeometry relative="1" as="geometry">
                        <Array as="points">
                            <mxPoint x="150" y="480"/>
                        </Array>
                    </mxGeometry>
                </mxCell>
                <mxCell id="bZagwtYcMBlJlPfbizuW-18" value="d&amp;gt;0" style="rhombus;whiteSpace=wrap;html=1;rounded=1;fillColor=#d80073;fontColor=#ffffff;strokeColor=#A50040;" vertex="1" parent="1">
                    <mxGeometry x="10" y="440" width="100" height="80" as="geometry"/>
                </mxCell>
                <mxCell id="bZagwtYcMBlJlPfbizuW-20" value="no hay solucion real" style="shape=document;whiteSpace=wrap;html=1;boundedLbl=1;rounded=1;fillColor=#d80073;fontColor=#ffffff;strokeColor=#A50040;" vertex="1" parent="1">
                    <mxGeometry x="-120" y="530" width="120" height="80" as="geometry"/>
                </mxCell>
                <mxCell id="bZagwtYcMBlJlPfbizuW-28" value="" style="edgeStyle=none;html=1;" edge="1" parent="1" target="bZagwtYcMBlJlPfbizuW-20">
                    <mxGeometry relative="1" as="geometry">
                        <mxPoint x="160" y="620" as="sourcePoint"/>
                        <mxPoint x="-100" y="581.9354838709677" as="targetPoint"/>
                        <Array as="points">
                            <mxPoint x="160" y="680"/>
                            <mxPoint x="90" y="680"/>
                            <mxPoint x="-60" y="680"/>
                        </Array>
                    </mxGeometry>
                </mxCell>
                <mxCell id="bZagwtYcMBlJlPfbizuW-25" value="X1=(-b+sqrt(d))2*a&amp;nbsp;&lt;br&gt;x2=(-b-sqrt(d))2*a" style="rounded=1;whiteSpace=wrap;html=1;fillColor=#d80073;fontColor=#ffffff;strokeColor=#A50040;" vertex="1" parent="1">
                    <mxGeometry x="90" y="560" width="120" height="60" as="geometry"/>
                </mxCell>
                <mxCell id="bZagwtYcMBlJlPfbizuW-34" value="fin" style="ellipse;whiteSpace=wrap;html=1;fillColor=#d80073;fontColor=#ffffff;strokeColor=#A50040;" vertex="1" parent="1">
                    <mxGeometry x="230" y="790" width="120" height="80" as="geometry"/>
                </mxCell>
            </root>
        </mxGraphModel>
    </diagram>
</mxfile>